PathFileType	4	(X/Y/Z)	C:\Users\86182\Documents\cortex\Trimmed_M1_L13.trc
DataRate	CameraRate	NumFrames	NumMarkers	Units	OrigDataRate	OrigDataStartFrame	OrigNumFrames
100.00	100.00	       112	2	mm	100.00	721	       901
Frame#	Time	gripper			box			
		X1	Y1	Z1	X2	Y2	Z2	

721	7.200	199.46303	195.98528	293.08505	200.57158	195.56322	153.82292	
722	7.210	199.48732	195.98114	293.07660	200.56209	195.54977	153.83098	
723	7.220	199.47021	195.99773	293.08215	200.56677	195.58334	153.81197	
724	7.230	199.50157	195.97946	293.07797	200.58672	195.57945	153.82013	
725	7.240	199.47060	196.00137	293.08963	200.57158	195.56322	153.82292	
726	7.250	199.47105	195.99678	293.08063	200.60373	195.60182	153.80904	
727	7.260	199.48689	195.98871	293.07916	200.58667	195.58113	153.81679	
728	7.270	199.49066	195.98738	293.08359	200.58487	195.57507	153.82513	
729	7.280	199.49397	195.98466	293.07635	200.61183	195.62802	153.79584	
730	7.290	199.43904	196.01158	293.08221	200.59726	195.59001	153.81967	
731	7.300	199.46085	196.00052	293.07950	200.61053	195.60709	153.81174	
732	7.310	199.47917	195.99123	293.07724	200.62277	195.62357	153.80298	
733	7.320	199.45001	196.00452	293.08096	200.60559	195.60446	153.80743	
734	7.330	199.45590	195.97746	293.09061	200.59517	195.59230	153.81125	
735	7.340	199.50241	195.98039	293.07626	200.58046	195.58356	153.81509	
736	7.350	199.45647	196.00089	293.08310	200.55902	195.56975	153.81619	
737	7.360	199.44839	195.99269	293.08688	200.61328	195.61188	153.80766	
738	7.370	199.46465	195.99710	293.07913	200.61070	195.61336	153.80725	
739	7.380	199.51076	195.97952	293.07755	200.59599	195.61258	153.80327	
740	7.390	199.45757	195.98518	293.08691	200.56781	195.55786	153.82613	
741	7.400	199.45816	195.96684	293.09882	200.57535	195.56509	153.82645	
742	7.410	199.46124	195.98332	293.08646	200.59247	195.58583	153.81866	
743	7.420	199.47183	195.99495	293.07816	200.61604	195.61665	153.80360	
744	7.430	199.48285	195.98936	293.07678	200.57724	195.56950	153.82146	
745	7.440	199.45956	195.99814	293.08133	200.62714	195.63835	153.79741	
746	7.450	199.47551	195.99309	293.07770	200.57381	195.57845	153.81235	
747	7.460	199.49968	195.98419	293.07797	200.60977	195.60333	153.81758	
748	7.470	199.48659	195.98746	293.07632	200.57819	195.57170	153.81897	
749	7.480	199.47104	195.98421	293.09659	200.58101	195.57484	153.81824	
750	7.490	199.51500	195.98079	293.08600	200.58009	195.57268	153.82072	
751	7.500	199.48888	195.97833	293.08398	200.57442	195.56462	153.82556	
752	7.510	199.46484	195.99146	293.08389	200.56773	195.55431	153.83293	
753	7.520	199.45721	196.00237	293.07996	200.56490	195.55116	153.83365	
754	7.530	199.48689	195.97597	293.08096	200.57158	195.56322	153.82292	
755	7.540	199.46655	195.98915	293.08231	200.56818	195.56702	153.82388	
756	7.550	199.46687	195.99361	293.08200	200.58961	195.58093	153.82278	
757	7.560	199.45093	196.00650	293.08261	200.60373	195.60182	153.80904	
758	7.570	199.46289	195.99101	293.08276	200.60112	195.59372	153.81981	
759	7.580	199.42241	196.00893	293.08084	200.55667	195.59012	153.80225	
760	7.590	199.44273	196.00404	293.08408	200.57765	195.57870	153.81918	
761	7.600	199.45959	195.97980	293.08792	200.59799	195.59544	153.81052	
762	7.610	199.45964	195.98817	293.08344	200.58133	195.58910	153.80598	
763	7.620	199.47388	195.99632	293.08023	200.59325	195.59129	153.80952	
764	7.630	199.47929	196.00139	293.09726	200.59615	195.59280	153.81212	
765	7.640	199.46085	196.00052	293.07950	200.57759	195.58209	153.81248	
766	7.650	199.48846	195.98796	293.07751	200.56969	195.56053	153.82452	
767	7.660	199.50522	195.98186	293.07776	200.59808	195.59383	153.81383	
768	7.670	199.47917	195.99123	293.07724	200.58765	195.58163	153.81766	
769	7.680	199.45755	195.99516	293.08481	200.58298	195.57240	153.82674	
770	7.690	199.49782	195.98465	293.07773	200.57277	195.60860	153.79697	
771	7.700	199.44870	195.97545	293.09387	200.61630	195.61349	153.81026	
772	7.710	199.47755	195.99400	293.08124	200.58952	195.58430	153.81606	
773	7.720	199.49396	195.98372	293.07541	200.61119	195.61240	153.80266	
774	7.730	199.47375	195.99117	293.07907	200.60094	195.59700	153.81310	
775	7.740	199.45027	196.00140	293.08109	200.56923	195.60631	153.80234	
776	7.750	199.43530	196.00629	293.07745	200.58784	195.58794	153.81317	
777	7.760	199.44992	196.00606	293.08084	200.61061	195.61497	153.80392	
778	7.770	199.47046	195.99338	293.07425	200.58841	195.60356	153.80635	
779	7.780	199.44487	195.99716	293.08517	200.60559	195.60446	153.80743	
780	7.790	199.48172	195.99005	293.09058	200.60667	195.60338	153.81161	
781	7.800	199.49095	195.98608	293.07642	200.60490	195.59909	153.81657	
782	7.810	199.46669	195.98341	293.08459	200.57838	195.57628	153.81786	
783	7.820	199.46817	195.99681	293.07861	200.56969	195.56053	153.82452	
784	7.830	199.49231	195.98355	293.07617	200.58852	195.58716	153.80856	
785	7.840	199.49025	195.98560	293.07587	200.61691	195.61877	153.80116	
786	7.850	199.49957	195.98232	293.07611	200.58667	195.58113	153.81679	
787	7.860	199.50522	195.98186	293.07776	200.62871	195.62845	153.80478	
788	7.870	199.50020	195.99715	293.07440	200.59711	195.59329	153.81299	
789	7.880	199.48285	195.98936	293.07678	200.63283	195.63071	153.80823	
790	7.890	199.49768	195.98184	293.07498	200.59427	195.59015	153.81371	
791	7.900	199.47551	195.99309	293.07770	200.57158	195.56322	153.82292	
792	7.910	199.46849	195.99060	293.08481	200.62581	195.62521	153.80553	
793	7.920	199.50395	195.98296	293.08560	200.58902	195.59308	153.81288	
794	7.930	199.47565	195.99152	293.07776	200.58380	195.57967	153.81419	
795	7.940	199.44209	195.97551	293.09286	200.57155	195.55794	153.83308	
796	7.950	199.47183	195.97722	293.08615	200.58760	195.58502	153.81100	
797	7.960	199.47845	195.98579	293.11755	200.57344	195.56586	153.82132	
798	7.970	199.47105	195.97940	293.08221	200.59331	195.58966	153.81285	
799	7.980	199.47458	195.94720	293.10837	200.56392	195.54889	153.83618	
800	7.990	199.47301	195.94879	293.09671	200.55525	195.56442	153.81938	
801	8.000	199.45508	195.99220	293.09174	200.57158	195.56322	153.82292	
802	8.010	199.46094	196.00142	293.08044	200.56125	195.57996	153.81563	
803	8.020	199.45377	195.98679	293.09961	200.57158	195.56322	153.82292	
804	8.030	199.49258	195.97740	293.08444	200.57724	195.56950	153.82146	
805	8.040	199.49226	195.98795	293.07889	200.55858	195.58313	153.81183	
806	8.050	199.46161	195.96605	293.09344	200.55638	195.54170	153.83585	
807	8.060	199.47551	195.99309	293.07770	200.55556	195.57707	153.81038	
808	8.070	199.46568	195.95732	293.10022	200.58289	195.57919	153.81334	
809	8.080	199.47932	195.98549	293.07956	200.54723	195.53035	153.84048	
810	8.090	199.47899	195.95738	293.10501	200.56612	195.56149	153.82324	
811	8.100	199.47380	196.00122	293.09747	200.56589	195.55516	153.82774	
812	8.110	199.42862	195.98808	293.11087	200.55939	195.55928	153.82222	
813	8.120	199.48161	195.96555	293.10303	200.55717	195.54601	153.82893	
814	8.130	199.44341	195.94865	293.11813	200.54460	195.54234	153.83452	
815	8.140	199.45149	195.97784	293.09424	200.55663	195.58383	153.80675	
816	8.150	199.45380	196.00111	293.08057	200.55563	195.54579	153.83383	
817	8.160	199.44601	195.97314	293.11020	200.54561	195.54460	153.83200	
818	8.170	199.49336	195.96716	293.09616	200.55125	195.55089	153.83055	
819	8.180	199.44598	195.99396	293.09402	200.55920	195.54485	153.83511	
820	8.190	199.43205	195.99812	293.09006	200.56303	195.55025	153.83186	
821	8.200	199.47745	195.99355	293.07886	200.57344	195.56586	153.82132	
822	8.210	199.44727	196.00836	293.08310	200.55064	195.53358	153.84070	
823	8.220	199.46948	196.01442	293.07581	200.55351	195.54488	153.83156	
824	8.230	199.49701	195.98508	293.08072	200.56589	195.55516	153.82774	
825	8.240	199.50259	195.98668	293.07330	200.61241	195.60976	153.81012	
826	8.250	199.47926	196.01312	293.07407	200.64510	195.64725	153.79941	
827	8.260	199.49596	195.99519	293.09964	200.58861	195.58214	153.81854	
828	8.270	199.49313	195.98557	293.07788	200.59517	195.59230	153.81125	
829	8.280	199.48024	195.97755	293.07993	200.59703	195.59494	153.80965	
830	8.290	199.46692	195.97188	293.08926	200.56876	195.55833	153.82703	
831	8.300	199.42126	195.99788	293.09372	200.55319	195.55536	153.82553	
832	8.310	199.50140	195.97995	293.07449	200.54437	195.56735	153.81549	
